<svg width="242" height="172" viewBox="0 0 242 172" fill="none" xmlns="http://www.w3.org/2000/svg">
<path opacity="0.88" d="M77.81 72.21C71.3 65.7 63.58 62.49 54.36 62.49C45.14 62.49 37.33 65.7 30.71 72.21C24.21 78.73 21 86.54 21 95.76C21 104.98 24.31 112.79 30.72 119.31C37.23 125.82 45.05 129.03 54.27 129.03C63.49 129.03 71.3 125.72 77.82 119.31C83.93 113.2 87.14 105.98 87.54 97.57V94.86C87.34 86.04 84.13 78.53 77.82 72.21H77.81ZM63.98 105.18C61.37 107.79 58.07 109.09 54.36 109.09C50.65 109.09 47.65 107.79 45.04 105.18C42.43 102.57 41.13 99.47 41.13 95.76C41.13 92.05 42.43 88.95 45.04 86.34C47.55 83.73 50.75 82.43 54.46 82.43C58.17 82.43 61.27 83.73 63.98 86.34C66.59 88.95 67.89 92.05 67.89 95.76C67.89 99.47 66.59 102.57 63.98 105.18Z" fill="white"/>
<path opacity="0.88" d="M144.75 72.21C138.24 65.7 130.52 62.49 121.3 62.49C112.08 62.49 104.17 65.7 97.6497 72.21C91.1297 78.72 87.9297 86.54 87.9297 95.76C87.9297 104.98 91.1397 112.79 97.6497 119.31C104.16 125.82 112.08 129.03 121.3 129.03C130.52 129.03 138.23 125.72 144.75 119.31C150.86 113.2 154.07 105.98 154.47 97.57V94.86C154.27 86.04 151.06 78.53 144.75 72.21ZM130.82 105.18C128.21 107.79 125.01 109.09 121.3 109.09C117.59 109.09 114.49 107.79 111.88 105.18C109.27 102.57 107.97 99.47 107.97 95.76C107.97 92.05 109.27 88.95 111.88 86.34C114.49 83.73 117.59 82.43 121.3 82.43C125.01 82.43 128.21 83.73 130.82 86.34C133.43 88.95 134.73 92.05 134.73 95.76C134.73 99.47 133.43 102.57 130.82 105.18Z" fill="white"/>
<path opacity="0.88" d="M211.68 72.21C205.17 65.7 197.35 62.49 188.23 62.49C179.11 62.49 171.1 65.7 164.58 72.21C158.06 78.72 154.86 86.54 154.86 95.76C154.86 104.98 158.07 112.79 164.58 119.31C171.09 125.82 179.01 129.03 188.23 129.03C197.45 129.03 205.26 125.72 211.68 119.31C218.1 112.9 221 105.98 221.4 97.57V94.86C221.2 86.04 217.99 78.53 211.68 72.21ZM197.75 105.18C195.14 107.79 191.94 109.09 188.13 109.09C184.32 109.09 181.42 107.79 178.81 105.18C176.2 102.57 174.9 99.47 174.9 95.76C174.9 92.05 176.2 88.95 178.81 86.34C181.42 83.73 184.42 82.53 188.13 82.53C191.84 82.53 195.04 83.73 197.75 86.34C200.46 88.95 201.66 92.05 201.66 95.76C201.66 99.47 200.36 102.57 197.75 105.18Z" fill="white"/>
<path opacity="0.88" d="M77.81 25.72C71.3 19.21 63.48 16 54.27 16C45.06 16 37.23 19.21 30.72 25.72C24.21 32.23 21 40.05 21 49.27C21 58.49 24.31 66.3 30.72 72.82C37.23 79.33 45.05 82.44 54.27 82.44C63.49 82.44 71.3 79.33 77.82 72.82C83.93 66.71 87.14 59.39 87.54 51.08V48.37C87.34 39.55 84.13 32.04 77.82 25.72H77.81ZM63.88 58.69C61.27 61.3 57.97 62.6 54.26 62.6C50.55 62.6 47.55 61.3 44.94 58.69C42.33 56.08 41.03 52.98 41.03 49.27C41.03 45.56 42.33 42.46 44.94 39.85C47.55 37.24 50.65 35.94 54.26 35.94C57.87 35.94 61.27 37.24 63.88 39.85C66.49 42.46 67.79 45.56 67.79 49.27C67.79 52.98 66.49 56.08 63.88 58.69Z" fill="white"/>
<path opacity="0.88" d="M144.75 25.72C138.23 19.21 130.52 16 121.3 16C112.08 16 104.17 19.21 97.6497 25.72C91.1297 32.23 87.9297 40.05 87.9297 49.27C87.9297 58.49 91.1397 66.3 97.6497 72.82C104.16 79.34 112.08 82.44 121.3 82.44C130.52 82.44 138.23 79.33 144.75 72.82C150.86 66.71 154.07 59.39 154.47 51.08V48.37C154.27 39.55 151.06 32.04 144.75 25.72ZM130.82 58.69C128.21 61.3 125.01 62.6 121.3 62.6C117.59 62.6 114.49 61.3 111.88 58.69C109.27 56.08 107.97 52.98 107.97 49.27C107.97 45.56 109.27 42.46 111.88 39.85C114.49 37.24 117.59 35.94 121.3 35.94C125.01 35.94 128.21 37.24 130.82 39.85C133.43 42.46 134.73 45.56 134.73 49.27C134.73 52.98 133.43 56.08 130.82 58.69Z" fill="white"/>
<path opacity="0.88" d="M211.68 25.72C205.17 19.21 197.35 16 188.23 16C179.11 16 171.2 19.21 164.58 25.72C157.97 32.23 154.86 40.05 154.86 49.27C154.86 58.49 158.07 66.3 164.58 72.82C171.09 79.33 179.01 82.54 188.23 82.54C197.45 82.54 205.26 79.23 211.68 72.82C217.79 66.71 221 59.39 221.4 51.08V48.37C221.2 39.55 217.99 32.04 211.68 25.72ZM197.75 58.69C195.14 61.3 191.94 62.6 188.13 62.6C184.32 62.6 181.42 61.3 178.81 58.69C176.2 56.08 174.9 52.98 174.9 49.27C174.9 45.56 176.2 42.46 178.81 39.85C181.42 37.24 184.42 35.94 188.13 35.94C191.84 35.94 195.14 37.24 197.75 39.85C200.36 42.46 201.66 45.56 201.66 49.27C201.66 52.98 200.36 56.08 197.75 58.69Z" fill="white"/>
<path d="M221.49 149.398H220.896C220.612 149.299 220.154 149.225 219.523 149.176C218.893 149.126 218.367 149.102 217.946 149.102C216.994 149.102 216.153 149.163 215.423 149.287C214.693 149.411 213.908 149.621 213.066 149.918V163.871H206.387V143.034H213.066V146.096C214.538 144.834 215.819 143.999 216.907 143.591C217.996 143.17 218.998 142.96 219.913 142.96C220.148 142.96 220.414 142.966 220.711 142.979C221.008 142.991 221.268 143.009 221.49 143.034V149.398Z" fill="white"/>
<path d="M201.674 154.687H186.385C186.484 156.319 187.102 157.569 188.24 158.435C189.391 159.3 191.079 159.733 193.306 159.733C194.716 159.733 196.083 159.48 197.406 158.973C198.73 158.465 199.775 157.921 200.542 157.34H201.284V162.702C199.775 163.308 198.353 163.747 197.017 164.02C195.681 164.292 194.202 164.428 192.582 164.428C188.401 164.428 185.197 163.488 182.971 161.607C180.744 159.727 179.631 157.049 179.631 153.573C179.631 150.134 180.682 147.413 182.785 145.409C184.9 143.393 187.795 142.385 191.469 142.385C194.858 142.385 197.406 143.244 199.113 144.964C200.82 146.671 201.674 149.132 201.674 152.349V154.687ZM195.031 150.771C194.994 149.374 194.648 148.322 193.992 147.617C193.337 146.912 192.316 146.56 190.931 146.56C189.644 146.56 188.587 146.894 187.758 147.562C186.929 148.229 186.465 149.299 186.366 150.771H195.031Z" fill="white"/>
<path d="M177.775 163.871H170.001L164.156 154.798L162.338 157.006V163.871H155.658V135H162.338V152.237L169.537 143.034H177.237L169.741 152.015L177.775 163.871Z" fill="white"/>
<path d="M150.871 153.462C150.871 156.888 149.869 159.591 147.865 161.57C145.874 163.537 143.072 164.521 139.46 164.521C135.848 164.521 133.04 163.537 131.036 161.57C129.045 159.591 128.049 156.888 128.049 153.462C128.049 150.011 129.051 147.302 131.055 145.335C133.071 143.368 135.873 142.385 139.46 142.385C143.097 142.385 145.905 143.374 147.884 145.354C149.875 147.333 150.871 150.035 150.871 153.462ZM142.651 158.527C143.084 157.995 143.406 157.358 143.616 156.616C143.839 155.862 143.95 154.823 143.95 153.499C143.95 152.274 143.839 151.248 143.616 150.419C143.394 149.59 143.084 148.928 142.688 148.434C142.293 147.926 141.816 147.568 141.26 147.357C140.703 147.147 140.103 147.042 139.46 147.042C138.817 147.042 138.242 147.129 137.734 147.302C137.24 147.475 136.763 147.821 136.306 148.341C135.897 148.823 135.57 149.485 135.322 150.326C135.087 151.167 134.97 152.225 134.97 153.499C134.97 154.637 135.075 155.627 135.285 156.468C135.495 157.297 135.805 157.965 136.213 158.472C136.609 158.954 137.079 159.307 137.623 159.529C138.18 159.752 138.811 159.863 139.516 159.863C140.122 159.863 140.697 159.764 141.241 159.566C141.798 159.356 142.268 159.01 142.651 158.527Z" fill="white"/>
<path d="M124.746 153.165C124.746 154.884 124.48 156.449 123.948 157.859C123.429 159.27 122.742 160.432 121.889 161.348C120.998 162.312 119.99 163.042 118.864 163.537C117.739 164.032 116.533 164.279 115.246 164.279C114.059 164.279 113.05 164.149 112.222 163.89C111.393 163.642 110.546 163.29 109.68 162.832V171.516H103V143.034H109.68V145.205C110.706 144.389 111.752 143.727 112.815 143.22C113.892 142.713 115.129 142.459 116.526 142.459C119.124 142.459 121.14 143.411 122.575 145.316C124.022 147.221 124.746 149.838 124.746 153.165ZM117.862 153.295C117.862 151.266 117.516 149.794 116.823 148.879C116.131 147.964 115.036 147.506 113.539 147.506C112.908 147.506 112.259 147.605 111.591 147.803C110.923 147.988 110.286 148.26 109.68 148.619V159.103C110.125 159.276 110.601 159.387 111.108 159.437C111.616 159.486 112.117 159.511 112.611 159.511C114.38 159.511 115.698 158.997 116.563 157.971C117.429 156.932 117.862 155.373 117.862 153.295Z" fill="white"/>
</svg>
