<svg width="250" height="83" viewBox="0 0 250 83" fill="none" xmlns="http://www.w3.org/2000/svg">
<path d="M165.404 27.8893L152.142 81.6222H173.673L187.523 25.6765L165.404 27.8893Z" fill="white"/>
<path d="M236.46 25.5513C230.038 24.925 220.008 26.8873 215.055 30.6448C214.929 28.5991 214.551 26.9708 214.132 25.3425L195.077 27.6806C195.833 32.9829 195.077 38.8697 193.231 46.7605L184.669 81.6222H206.199L215.013 46.0508C217.154 42.9612 220.595 40.9155 223.491 40.9155C227.101 40.9155 227.94 43.5457 226.849 47.8043L218.581 81.6222H240.111L249.345 44.8818C251.569 34.9034 248.337 26.7203 236.46 25.5513Z" fill="white"/>
<path fill-rule="evenodd" clip-rule="evenodd" d="M139.341 26.2193L132.542 41.8757C130.024 47.7625 127.799 53.3153 125.868 58.7429L125.617 26.2193H106.184L90.0679 59.0352L91.8307 25.4678L70.4259 28.1398L74.7069 81.6222H93.6354C93.6354 81.6222 107.989 52.7726 109.29 49.4325L109.5 81.6222H128.932L160.998 26.261H139.341V26.2193Z" fill="white"/>
<path fill-rule="evenodd" clip-rule="evenodd" d="M47.1745 24.8417C41.5924 24.8417 37.3954 26.3029 34.9192 27.6807C38.4447 16.8256 39.2421 6.76371 39.2421 6.76371C39.41 5.13544 39.41 3.21492 39.368 1.92065L16.7881 4.63444C17.0399 8.22498 16.4943 13.9448 13.5983 26.0942L2.72806 70.976C2.22442 73.1052 1.00728 77.1968 0 78.6998C6.79917 80.9543 14.6056 83.0001 27.4905 83.0001C34.5414 83.0001 40.1235 81.7058 45.8314 78.3658C55.6105 72.6877 61.6542 62.4171 64.1724 52.5222C68.7891 33.9433 61.1505 24.8417 47.1745 24.8417ZM41.4665 53.4825C38.9903 63.7949 35.7586 68.3874 30.3025 68.3874C28.078 68.3874 26.2313 67.8447 25.2241 67.0932L31.1838 42.5021C32.317 41.5419 34.2896 39.8301 37.5213 39.8301C42.3479 39.8718 44.0687 42.5439 41.4665 53.4825Z" fill="white"/>
<path d="M179.464 20.8752C186.186 20.8752 191.636 16.2022 191.636 10.4376C191.636 4.67308 186.186 0 179.464 0C172.742 0 167.293 4.67308 167.293 10.4376C167.293 16.2022 172.742 20.8752 179.464 20.8752Z" fill="#FFD300"/>
</svg>
