<svg width="154" height="32" viewBox="0 0 154 32" fill="none" xmlns="http://www.w3.org/2000/svg">
<path d="M54.0344 6.63108L59.0705 0H43.8052H43.7173C38.4112 0 33.7016 2.61852 30.8068 6.63108H54.0344Z" fill="#CC2027"/>
<path fill-rule="evenodd" clip-rule="evenodd" d="M25.4631 16.0564C25.4631 14.9011 25.5762 13.7644 25.7833 12.6655H17.5197L12.4897 19.1836H20.4772C20.4772 19.1836 20.7347 19.1899 20.9984 19.2339C22.4929 19.4036 23.6672 20.6846 23.6672 22.2166C23.6672 23.7424 22.5243 25.0046 20.9984 25.1868H16.2512C11.1208 25.1868 6.94507 21.1555 6.94507 16.0251C6.94507 15.3469 7.02039 14.6875 7.16479 14.0408C7.26526 13.5825 7.66724 12.113 8.47095 10.8572C10.0973 8.30762 12.9922 6.6687 16.2261 6.6687H21.5762C21.5762 6.6626 21.5824 6.6626 21.5824 6.65625H25.394L30.4427 0H28.3453H16.0251H15.9373C7.15222 0 0 7.17749 0 16C0 24.8225 7.15222 32 15.9497 32H16.0251H20.584H26.7629C28.6028 32 30.0973 30.5369 30.0973 28.697V28.1255C27.2151 24.8916 25.4631 20.6719 25.4631 16.0564ZM82.4585 23.26C82.4585 18.5442 86.2827 14.72 90.9985 14.72C95.7144 14.72 99.5322 18.5442 99.5386 23.26C99.5386 27.9758 95.7144 31.8 90.9985 31.8C86.2827 31.8 82.4585 27.9758 82.4585 23.26ZM85.5166 23.26C85.5166 26.2805 87.9718 28.7419 90.9985 28.7419C94.0189 28.7419 96.4805 26.2805 96.4805 23.26C96.4805 20.2395 94.0189 17.7781 90.9985 17.7781C87.9781 17.7781 85.5166 20.2395 85.5166 23.26ZM124.085 30.657C119.84 30.657 116.386 27.1846 116.386 22.9397C116.386 18.6946 119.84 15.2222 124.085 15.2222H133.334V18.7764H124.085C122.433 18.7764 120.995 19.7747 120.323 21.106H133.334V24.6602H120.279C120.939 26.1045 122.396 27.1028 124.085 27.1028H133.334V30.657H124.085ZM152.732 20.8674C152.732 17.7842 150.258 15.2222 147.212 15.2222H135.218V30.657H138.44V18.3306H147.212C148.525 18.3306 149.63 19.5486 149.63 20.9365C149.63 22.3242 148.512 23.5486 147.187 23.5486H141.875C141.77 23.5486 141.659 23.571 141.55 23.6104C141.429 23.6538 141.311 23.7178 141.209 23.7937C140.92 24.0071 140.732 24.3586 140.732 24.7544C140.732 25.1436 140.882 25.4954 141.215 25.7151V25.7278L148.317 30.657H153.536L147.413 26.5C150.471 26.5 152.732 23.9507 152.732 20.8674ZM81.0016 20.8923C81.0016 23.9692 78.7284 26.5437 75.6703 26.5437L68.2668 26.55V23.5486H75.4631C76.7881 23.5486 77.9058 22.324 77.9058 20.9363C77.9058 19.5486 76.8007 18.3303 75.4883 18.3303H66.7158V30.6631H63.4945V15.2283H75.4945C78.5337 15.2283 81.0016 17.8091 81.0016 20.8923ZM104.468 15.2222H101.246V30.657H104.468V15.2222ZM113.46 30.5442H118.232L109.648 23.4673C109.498 23.3167 109.403 23.1155 109.403 22.8833C109.403 22.6509 109.498 22.4312 109.648 22.2805L118.232 15.2161H113.391L105.937 21.3071C105.215 21.9727 105.24 22.8645 105.24 22.8706C105.24 23.5049 105.51 24.0576 105.918 24.3716L113.46 30.5442ZM45.0109 12.6655H54.5431C56.3829 12.6655 57.8837 14.1851 57.8837 16.0249V28.697C57.8837 30.5369 56.3892 32 54.5493 32H48.3704H43.8115H43.7361C34.9386 32 27.7864 24.8225 27.7864 16C27.7864 14.8193 27.912 13.6641 28.1569 12.5525H35.4159C35.1521 13.218 35.0077 13.7896 34.9512 14.0408C34.8068 14.6875 34.7314 15.3469 34.7314 16.0249C34.7314 21.1553 38.9072 25.1868 44.0376 25.1868H48.7848C50.3107 25.0046 51.4536 23.7424 51.4536 22.2166C51.4536 20.6843 50.2793 19.4033 48.7848 19.2339C48.5211 19.1899 48.2637 19.1836 48.2637 19.1836H39.9811L45.0109 12.6655Z" fill="white"/>
</svg>
