<svg width="150" height="116" viewBox="0 0 150 116" fill="none" xmlns="http://www.w3.org/2000/svg">
<path fill-rule="evenodd" clip-rule="evenodd" d="M90.3794 13.5819H95.4727V35.3529C95.4727 41.4447 98.2689 44.4407 103.961 44.4407C107.457 44.4407 110.053 43.4421 111.651 41.6445L108.955 37.7497C107.956 38.8482 106.458 39.5473 104.66 39.5473C101.864 39.5473 101.065 37.6498 101.065 34.0546V13.5819H110.153V9.08788H101.065V0H95.5725V9.08788H90.3794V13.5819ZM49.9334 8.28899C42.1438 8.28899 38.6484 12.4834 37.6498 14.7803L42.0439 17.277C43.1424 15.1798 45.5392 13.0826 49.6338 13.0826C53.928 13.0826 55.0266 15.2797 55.0266 19.3742V22.3702C42.5432 23.5686 36.5512 27.6631 36.5512 34.9534C36.5512 41.8442 41.8442 44.3409 48.6351 44.3409C53.3288 44.3409 57.723 43.2424 60.5193 41.0453V18.2757C60.5193 12.3835 57.6231 8.28899 49.9334 8.28899ZM42.1438 34.7537C42.1438 30.06 47.1371 27.763 55.0266 27.064L54.9267 38.5486C53.5286 39.4474 51.6311 39.8469 48.9347 39.8469C44.5406 39.8469 42.1438 37.8496 42.1438 34.7537ZM16.2783 8.38883C12.3835 8.38883 7.98934 9.18776 4.99334 10.9854V57.5233H10.486V43.3422C11.984 43.8415 13.8815 44.0413 15.8788 44.0413C24.767 44.0413 30.759 39.9467 30.759 25.3662C30.759 14.8802 27.4634 8.38883 16.2783 8.38883ZM15.779 39.3475C13.2823 39.3475 11.3848 38.9481 10.486 38.3489V14.1811C11.0852 13.6818 13.2823 13.1824 15.8788 13.1824C23.6684 13.1824 25.1664 18.0759 25.1664 25.1664C25.1664 36.2517 21.771 39.3475 15.779 39.3475ZM69.1078 10.9854C71.5046 9.48736 75.2995 8.38883 78.8947 8.38883C82.3901 8.38883 85.5858 9.58724 87.1837 12.8828L82.6897 15.0799C81.691 13.7816 80.193 13.1824 78.4953 13.1824C76.9973 13.1824 75.4992 13.482 74.6004 14.0812V43.8415H69.1078V10.9854ZM117.843 50.3329C118.642 51.0319 119.94 51.731 121.638 51.731C123.835 51.731 125.233 50.7323 127.031 44.9401L127.53 43.2423C124.734 41.3449 123.036 37.8495 121.039 31.0586L114.447 8.98801H120.439L126.032 28.7616C127.33 33.5552 128.529 36.1518 129.427 37.3502L138.315 9.08788H144.108L131.525 47.7363C128.928 55.7257 125.433 56.7243 121.338 56.7243C118.841 56.7243 116.245 55.7257 115.246 54.6271L117.843 50.3329ZM90.0798 102.264L80.3928 85.486L80.193 85.5859C78.7949 86.3848 77.3968 86.984 76.0985 87.3835L75.8988 87.4834V102.164H70.9054V53.2291H75.8988V82.8895L76.2982 82.6898C83.189 79.7936 87.4833 74.8003 89.0812 67.8096H94.1744C92.7763 74.0013 89.6804 78.8948 84.687 82.7896L84.4873 82.8895L95.6724 102.064L90.0798 102.264ZM0 115.945V69.7071C2.6964 68.1092 6.89081 67.2104 10.9853 67.2104C20.972 67.2104 25.1664 72.2038 25.1664 83.988C25.1664 96.771 20.6724 102.463 10.5859 102.463C8.58855 102.463 6.79094 102.264 5.19307 101.764L4.89348 101.664V115.945H0ZM10.6857 71.5047C7.98934 71.5047 5.79228 72.004 5.09321 72.5033L4.99334 72.6032V97.0706L5.09321 97.1704C6.09188 97.7696 7.98934 98.1691 10.486 98.1691C17.3768 98.1691 20.1731 93.9747 20.1731 83.6884C20.1731 76.3981 18.5752 71.5047 10.6857 71.5047ZM99.6671 86.1851C99.6671 97.6698 103.862 102.763 113.249 102.763C119.441 102.763 122.836 100.466 124.634 99.0679L121.937 95.3728C120.34 96.9707 117.643 98.6684 113.549 98.6684C107.357 98.6684 104.96 95.4727 104.76 86.7843V86.4847H124.234C124.634 84.787 124.734 82.0905 124.734 80.0932C124.734 71.5047 120.839 67.2104 113.149 67.2104C103.961 67.2104 99.6671 73.2024 99.6671 86.1851ZM104.561 82.2903C105.06 74.7004 107.457 71.5047 112.75 71.5047C118.842 71.5047 119.541 76.0985 119.441 79.7936V79.7942C119.441 80.593 119.441 81.6912 119.341 82.3902V82.5899H104.561V82.2903ZM132.623 102.264V69.8069C135.12 68.3089 138.915 67.3102 142.111 67.3102C144.807 67.3102 148.302 68.0093 150 71.4048L146.005 73.3023C145.007 72.1039 143.609 71.5047 141.711 71.5047C140.013 71.5047 138.615 71.8043 137.716 72.4035L137.616 72.5033V102.164L132.623 102.264ZM48.3356 85.9853H48.2357V74.7004C48.5837 75.2225 52.7228 80.9004 57.8782 86.1186C52.6513 90.9549 49.6632 95.4061 48.6679 96.8887C48.5025 97.1351 48.3921 97.2995 48.3356 97.3701V85.9853ZM28.462 85.9853L28.6098 86.0197C28.6466 86.0459 28.6925 86.0784 28.7473 86.1171C30.8473 87.6013 45.8365 98.1952 48.3356 114.248V113.948C48.6342 111.659 51.2142 97.9627 67.9381 86.1062L68.0093 86.0852L67.9884 86.0706L68.1092 85.9853H67.867C51.018 74.1234 48.5344 60.3134 48.2357 58.1225V57.8229C45.7369 73.7762 30.7529 84.3655 28.6485 85.8528L28.6484 85.8528C28.5957 85.89 28.5511 85.9215 28.515 85.9473C28.4946 85.9618 28.477 85.9745 28.462 85.9853Z" fill="white"/>
</svg>
