<svg width="120" height="114" viewBox="0 0 120 114" fill="none" xmlns="http://www.w3.org/2000/svg">
<path fill-rule="evenodd" clip-rule="evenodd" d="M20.4212 68.6227C20.4212 73.197 17.4743 76.365 11.8186 76.365H5.41188V83.8229H0V61.438H12.7725C17.6685 61.438 20.4212 64.1416 20.4212 68.6227ZM14.7887 68.6861C14.7887 66.5398 13.4125 65.6754 11.3963 65.6754H5.41188V71.8839H10.9475C13.4647 71.8839 14.7887 70.8927 14.7887 68.6861Z" fill="#FFFFFE"/>
<path fill-rule="evenodd" clip-rule="evenodd" d="M47.5653 72.6845C47.5653 80.2699 42.0256 84.1445 35.1772 84.1445C28.3295 84.1445 22.7935 80.2699 22.7935 72.6845C22.7935 64.972 28.3295 61.0899 35.1772 61.0899C42.0256 61.0899 47.5653 64.972 47.5653 72.6845ZM41.8049 72.6845C41.8049 67.9156 38.8919 65.5781 35.1772 65.6117C31.4639 65.6456 28.5535 67.9495 28.5535 72.6845C28.5535 77.292 31.4669 79.6638 35.1772 79.6638C38.8878 79.6638 41.8049 77.3259 41.8049 72.6845Z" fill="#FFFFFE"/>
<path fill-rule="evenodd" clip-rule="evenodd" d="M60.0567 74.6071L56.4057 78.767V83.8232H50.9863V61.438H56.3945V72.0147L65.8387 61.438H72.5712L63.726 70.8927L73.5512 83.8232H66.8597L60.0567 74.6071Z" fill="#FFFFFE"/>
<path fill-rule="evenodd" clip-rule="evenodd" d="M81.8303 65.9259V70.2531H92.9012V74.5285H81.8303V79.2452H94.173V83.8229H76.4185V61.4377H94.173V65.9259H81.8303Z" fill="#FFFFFE"/>
<path fill-rule="evenodd" clip-rule="evenodd" d="M107.422 75.7887H103.584V83.8233H98.1719V61.4373H111.169C116.383 61.4373 118.785 64.4293 118.785 68.3536C118.785 71.9662 116.769 74.7119 113.343 75.4261L120 83.8419H113.441L107.422 75.7887ZM103.584 71.469H109.472C111.678 71.469 113.151 70.6385 113.151 68.6227C113.151 66.4753 111.656 65.6747 109.632 65.6747H103.584V71.469Z" fill="#FFFFFE"/>
<path fill-rule="evenodd" clip-rule="evenodd" d="M13.948 90.5793C16.6583 90.5512 19.3635 90.8197 22.0154 91.3799V96.0512C19.2502 95.3909 16.417 95.0583 13.5742 95.0604C10.9146 95.0604 9.31817 95.8909 9.28425 97.2369C9.25033 98.584 10.1479 99.1859 12.1641 99.3164L16.454 99.5714C20.9016 99.8293 23.5268 101.875 23.5268 106.131C23.5268 111.828 18.6953 113.612 13.1895 113.612C10.3872 113.589 7.59232 113.321 4.83666 112.812V108.02C7.63517 108.62 10.4878 108.93 13.3498 108.948C16.772 108.948 18.3092 108.118 18.3092 106.419C18.3092 105.013 16.8357 104.403 14.7893 104.31L11.2371 104.115C6.81892 103.891 4.10012 101.939 4.10012 98.0036C4.08931 92.8195 8.44259 90.5793 13.948 90.5793Z" fill="#FFFFFE"/>
<path fill-rule="evenodd" clip-rule="evenodd" d="M45.5352 95.5725H38.1101V113.302H32.7012V95.5725H25.2217V90.9158H45.5422L45.5352 95.5725Z" fill="#FFFFFE"/>
<path fill-rule="evenodd" clip-rule="evenodd" d="M62.2766 108.66H51.5859L49.7948 113.301H43.9375L53.1197 90.9162H60.739L69.9242 113.32H64.068L62.2766 108.66ZM60.578 104.276L56.9303 94.8658L53.2811 104.276H60.578Z" fill="#FFFFFE"/>
<path fill-rule="evenodd" clip-rule="evenodd" d="M81.9611 105.267H78.1203V113.302H72.7114V90.9158H85.7061C90.9223 90.9158 93.3205 93.9079 93.3205 97.8321C93.3205 101.445 91.3047 104.19 87.8818 104.905L94.539 113.32H87.9753L81.9611 105.267ZM78.1203 100.948H84.0071C86.2171 100.948 87.6876 100.117 87.6876 98.1012C87.6876 95.9539 86.1914 95.1532 84.1681 95.1532H78.1203V100.948Z" fill="#FFFFFE"/>
<path fill-rule="evenodd" clip-rule="evenodd" d="M106.478 90.5793C109.194 90.5494 112.065 90.8182 114.722 91.3799V96.0512C111.955 95.3903 108.957 95.0574 106.111 95.0604C103.456 95.0604 101.856 95.8909 101.822 97.2369C101.789 98.584 102.685 99.1859 104.706 99.3164L108.991 99.5714C113.439 99.8293 116.218 101.875 116.218 106.131C116.218 111.828 111.225 113.612 105.72 113.612C102.914 113.593 100.115 113.329 97.3563 112.823V108.02C100.155 108.619 103.007 108.93 105.869 108.948C109.295 108.948 110.828 108.118 110.828 106.419C110.828 105.013 109.358 104.403 107.308 104.31L103.755 104.115C99.3419 103.891 96.6074 101.939 96.6074 98.023C96.6074 92.8195 100.973 90.5793 106.478 90.5793Z" fill="#FFFFFE"/>
<path fill-rule="evenodd" clip-rule="evenodd" d="M70.5895 10.4421C64.1332 3.99732 60.02 0 60.02 0C60.02 0 55.8985 3.99732 49.4538 10.4421C46.048 13.8437 38.3926 22.2842 38.3926 30.6765C38.3926 36.2707 42.9293 40.8066 48.5242 40.8066C52.1968 40.8066 55.4028 38.8493 57.1785 35.9244V35.9274C57.3575 35.709 57.6493 35.53 57.9773 35.53C58.4988 35.53 58.9729 35.8976 58.9182 36.3531C58.5279 39.3712 56.8285 46.8071 50.1314 49.319H69.9033C63.2073 46.8071 61.5087 39.3712 61.1211 36.3531C61.0629 35.8976 61.5412 35.53 62.0619 35.53C62.3828 35.53 62.6784 35.709 62.8573 35.9274L62.8614 35.9244C64.6297 38.8493 67.8391 40.8066 71.5113 40.8066C77.1033 40.8066 81.6433 36.2707 81.6433 30.6765C81.6433 22.2842 73.9879 13.8437 70.5895 10.4421Z" fill="#D70022"/>
<path fill-rule="evenodd" clip-rule="evenodd" d="M60.02 10.4596L62.7634 18.9138H71.6552L64.4616 24.1405L67.2121 32.5939L60.02 27.3677L52.8282 32.5939L55.5746 24.1405L48.3784 18.9138H57.277L60.02 10.4596Z" fill="#FFFFFE"/>
</svg>
