<svg width="250" height="82" viewBox="0 0 250 82" fill="none" xmlns="http://www.w3.org/2000/svg">
<path d="M247.363 9.66363C245.647 6.68296 243.153 4.22242 240.141 2.56204C237.049 0.881662 233.597 0.00146484 230.087 0.00146484C226.576 0.00146484 223.124 0.881662 220.032 2.54203C217.02 4.20241 214.506 6.66297 212.769 9.64362C210.955 12.7843 210.038 16.3451 210.096 19.966C210.038 23.5867 210.955 27.1476 212.769 30.2882C214.506 33.2888 217 35.7494 220.032 37.4298C223.104 39.1102 226.557 40.0105 230.067 40.0105C233.578 40.0105 237.03 39.1301 240.102 37.4298C243.114 35.7494 245.609 33.2888 247.324 30.2882C249.119 27.1476 250.036 23.5867 249.997 19.966C250.058 16.3451 249.139 12.7843 247.343 9.64362L247.363 9.66363ZM236.81 27.4077C236.65 27.5477 236.531 27.7277 236.471 27.9477C236.411 28.1677 236.43 28.3878 236.49 28.5879L237.01 30.1281L231.224 29.2681C230.466 29.1279 229.668 29.1279 228.911 29.2681L223.124 30.1281L223.644 28.5879C223.724 28.3878 223.724 28.1677 223.663 27.9477C223.603 27.7277 223.484 27.5477 223.324 27.4077L217.32 22.4865L218.575 21.9063C218.575 21.9063 219.035 21.6862 218.854 20.8661L217.818 17.2253L221.07 17.9055C221.07 17.9055 221.847 18.1055 222.028 17.4854L222.446 15.9851L225.417 19.2858C225.417 19.2858 225.717 19.6259 226.037 19.4658C226.356 19.3058 226.336 18.8857 226.276 18.4856L225.04 12.0642L226.835 13.0044C226.995 13.0844 227.193 13.1044 227.353 13.0444C227.513 12.9844 227.672 12.8844 227.773 12.7243L230.007 8.58338L232.261 12.7243C232.361 12.8844 232.52 12.9844 232.699 13.0444C232.881 13.0844 233.06 13.0844 233.219 13.0044L235.034 12.0642L233.778 18.4856C233.718 18.8857 233.778 19.3258 234.018 19.4658C234.257 19.6058 234.635 19.2858 234.635 19.2858L237.627 15.9851L238.046 17.4854C238.247 18.1055 239.024 17.9055 239.024 17.9055L242.277 17.2253L241.239 20.8661C241.039 21.6862 241.498 21.9063 241.498 21.9063L242.754 22.4865L236.771 27.4077H236.81Z" fill="#E4002B"/>
<path d="M37.2495 9.66346C35.5337 6.68281 33.0399 4.22225 30.0475 2.56189C26.9752 0.841494 23.5038 -0.0387033 19.9926 0.00130567C16.4814 -0.0387033 13.0101 0.841493 9.93783 2.54188C6.92537 4.20225 4.41166 6.6628 2.676 9.64347C0.880499 12.7842 -0.0571531 16.365 0.00269704 19.9658C-0.0571531 23.5867 0.880499 27.1474 2.676 30.2882C4.41166 33.2687 6.92537 35.7293 9.93783 37.4097C13.0101 39.15 16.4615 40.0503 19.9926 40.0102C23.5038 40.0503 26.9752 39.15 30.0276 37.4298C33.0399 35.7494 35.5337 33.2888 37.2495 30.2882C39.0448 27.1474 39.9426 23.5867 39.9027 19.9658C39.9627 16.345 39.0448 12.7842 37.2495 9.64347V9.66346ZM26.5163 27.2274C24.9403 29.0277 22.7656 29.9481 19.9728 29.9481C17.1797 29.9481 14.9852 29.0478 13.4091 27.2675C11.8331 25.507 11.0351 23.0865 11.0351 19.9857C11.0351 16.8851 11.8131 14.4445 13.4091 12.6641C15.045 10.8637 17.2196 9.98353 19.9728 9.98353C22.7257 9.98353 24.9004 10.8838 26.5163 12.6641C28.1123 14.5246 28.9104 16.9651 28.9104 19.9857C28.9104 23.0064 28.1123 25.427 26.5163 27.2274Z" fill="#E4002B"/>
<path d="M80.8003 39.6303H69.9674L55.5833 17.8254V39.6303H44.7505V0.621582H55.5833L69.9674 22.7065V0.621582H80.8003V39.6303Z" fill="#E4002B"/>
<path d="M116.272 0.621582V9.24351H105.898V39.6303H95.0845V9.24351H84.8303V0.621582H116.272Z" fill="#E4002B"/>
<path d="M140.331 0.621582H127.843L113.658 39.6303H125.03L127.124 33.2689H140.91L143.005 39.6303H154.436L140.331 0.621582ZM129.878 24.9471L134.007 12.3242L138.217 24.967H129.878V24.9471Z" fill="#E4002B"/>
<path d="M180.989 24.4268C183.523 23.7466 185.778 22.2464 187.374 20.166C188.83 18.1255 189.608 15.6649 189.548 13.1643C189.588 10.9238 189.009 8.70335 187.892 6.76292C186.735 4.80248 185.02 3.24212 182.985 2.2819C180.491 1.12165 177.778 0.561527 175.045 0.641545H157.987V39.6302H168.8V25.2271H169.957L177.678 39.6302H189.768L180.989 24.4069V24.4268ZM178.336 15.3649C178.157 15.885 177.857 16.3651 177.458 16.7652C176.521 17.5253 175.344 17.9054 174.147 17.8254H168.8V9.68358H174.147C175.344 9.60355 176.521 9.98364 177.438 10.7638C177.818 11.1439 178.117 11.604 178.316 12.1241C178.516 12.6442 178.596 13.1844 178.576 13.7245C178.615 14.2846 178.536 14.8447 178.336 15.3649Z" fill="#E4002B"/>
<path d="M205.269 0.621582H194.456V39.6104H205.269V0.621582Z" fill="#E4002B"/>
<path d="M44.7505 48.4524H57.8577C67.334 48.4524 71.3639 52.6933 71.3639 59.735V59.915C71.3639 66.7766 66.8153 70.6573 58.3166 70.6573H55.1445V81.3999H44.7505V48.4524ZM57.2991 63.6559C60.0522 63.6559 61.4886 62.4156 61.4886 59.9751V59.7949C61.4886 57.2545 60.0721 56.2543 57.359 56.2543H55.1445V63.6758H57.2991V63.6559Z" fill="black"/>
<path d="M73.9973 65.1362V64.7762C73.9973 54.594 81.718 47.9524 91.5534 47.9524C101.389 47.9524 109.209 54.0739 109.209 64.4962V64.8563C109.209 75.1386 102.187 82.0001 91.3738 82.0001C80.5608 82.0001 73.9973 75.1386 73.9973 65.1362ZM98.3564 65.0964V64.7362C98.3564 59.1549 95.6831 56.1143 91.5534 56.1143C87.4236 56.1143 84.8901 59.1149 84.8901 64.7362V65.0964C84.8901 70.7175 87.5035 73.7983 91.653 73.7983C95.8028 73.7983 98.3564 70.5775 98.3564 65.0964Z" fill="black"/>
<path d="M113.439 48.4524H123.872V60.9353L132.97 48.4524H143.762L132.231 63.6559L144.401 81.3999H132.411L123.872 68.2169V81.3999H113.439V48.4524Z" fill="black"/>
<path d="M147.673 48.4524H171.015V56.4743H158.047V61.1352H168.341V68.457H158.047V73.3981H171.733V81.4198H147.653V48.4524H147.673Z" fill="black"/>
<path d="M176.181 48.4524H189.608C198.665 48.4524 203.353 52.0934 203.353 59.1348V59.3148C203.353 63.876 201.06 66.4564 197.788 67.9369L205.269 81.3999H194.336L188.231 70.1173H186.575V81.3999H176.181V48.4524ZM189.01 63.3758C191.902 63.3758 193.279 62.1754 193.279 59.775V59.595C193.279 57.1943 191.862 56.2742 189.049 56.2742H186.575V63.3758H189.01Z" fill="black"/>
</svg>
